<?xml version="1.0" encoding="utf-8"?>
<!-- Generator: Adobe Illustrator 20.1.0, SVG Export Plug-In . SVG Version: 6.00 Build 0)  -->
<svg version="1.1" id="Layer_1" xmlns="http://www.w3.org/2000/svg" xmlns:xlink="http://www.w3.org/1999/xlink" x="0px" y="0px"
	 viewBox="0 0 2500 2458" style="enable-background:new 0 0 2500 2458;" xml:space="preserve">
<style type="text/css">
	.st0{fill:#FFFFFF;}
</style>
<g>
	<path class="st0" d="M21,20.4h2458.2v2417.2H21V20.4z"/>
	<path d="M216.5,212.7h2067.1v2032.8H216.5V212.7z"/>
	<g>
		<path class="st0" d="M614.9,701.7c0,0,155.4-4.1,283.3-4.1c129.3,0,221.5,30.4,283.3,83.9c59.2,50.5,99,136.6,99,234.6
			s-30.3,178.2-85.3,234.6c-71.5,72.8-154.9,115.8-297.1,121.8c-39.3,1.7-75.6,2.1-75.6,2.1v318.6H614.9V701.7L614.9,701.7z
			 M822.6,1198c22.5,2.2,36.7,1.2,70.1,0.7c111.4-1.4,180.2-69.1,180.2-171.6c0-92-56.7-167.7-163.6-171.5c-42.7-1.6-86.6,0-86.6,0
			V1198z"/>
		<path class="st0" d="M1359.9,1471.2c41.9,25.7,140.6,64.1,208,64.1c68.8,0,97.2-24.3,97.2-62.1c0-37.9-22.4-77.6-107.7-106.3
			c-151-51.4-209.5-113-207.9-199.2c0-139.2,116.6-243.6,297.7-243.6c85.3,0,153.4,27.8,198.2,50.5v167.1
			c-32.9-18.2-127.9-58.7-190.7-58.7c-55.4,0-86.7,22.7-86.7,60.5c0,34.8,28.4,53,118.2,84.8c139.1,48.4,197.5,119.5,198.9,228.4
			c0,137.7-106.1,247.2-317.1,240.5c-72.4-2.3-152.6-30.9-208-61.1L1359.9,1471.2L1359.9,1471.2z"/>
	</g>
</g>
</svg>
