<?xml version="1.0" encoding="utf-8"?>
<!-- Generator: Adobe Illustrator 20.1.0, SVG Export Plug-In . SVG Version: 6.00 Build 0)  -->
<svg version="1.1" id="Layer_1" xmlns="http://www.w3.org/2000/svg" xmlns:xlink="http://www.w3.org/1999/xlink" x="0px" y="0px"
	 viewBox="0 0 2500 2435" style="enable-background:new 0 0 2500 2435;" xml:space="preserve">
<style type="text/css">
	.st0{fill:#FFFFFF;}
</style>
<path class="st0" d="M7,12.1h2500v2434.9H7V12.1z"/>
<path d="M197.4,207.5h2114.1v2043.9H197.4V207.5z"/>
<g>
	<path class="st0" d="M971.5,708.5V1740H783.3V708.5H971.5z M1805.7,653.4v877c0,76.5,3.1,159.2,6.1,209.7h-168.4l-7.6-117.8h-3.1
		c-44.4,82.6-134.7,134.7-243.4,134.7c-177.5,0-318.3-151.5-318.3-381.1c-1.5-249.5,154.6-397.9,333.7-397.9
		c102.5,0,176,42.9,209.7,98h3.1V653.4H1805.7z M1617.4,1305.4c0-15.3-1.5-33.7-4.6-49c-16.8-73.5-76.5-133.2-162.2-133.2
		c-120.9,0-188.3,107.1-188.3,246.4c0,136.2,67.3,235.7,186.7,235.7c76.5,0,143.9-52,162.2-133.2c4.6-16.8,6.1-35.2,6.1-55.1
		L1617.4,1305.4L1617.4,1305.4z"/>
</g>
</svg>
