<?xml version="1.0" encoding="utf-8"?>
<!-- Generator: Adobe Illustrator 20.1.0, SVG Export Plug-In . SVG Version: 6.00 Build 0)  -->
<svg version="1.1" id="Layer_1" xmlns="http://www.w3.org/2000/svg" xmlns:xlink="http://www.w3.org/1999/xlink" x="0px" y="0px"
	 viewBox="0 0 2500 2435" style="enable-background:new 0 0 2500 2435;" xml:space="preserve">
<style type="text/css">
	.st0{fill:#FFFFFF;}
</style>
<path class="st0" d="M7,12.1h2500V2447H7V12.1z"/>
<path d="M197.4,207.5h2114.1v2043.9H197.4V207.5z"/>
<g>
	<path class="st0" d="M895.7,1483.2l-82.3,312.5c-2.1,8.3-5.2,10.4-15.6,10.4H644.7c-10.4,0-12.5-3.1-10.4-15.6L930.1,754.9
		c5.2-18.7,8.3-35.4,10.4-86.5c0-7.3,3.1-10.4,8.3-10.4h218.8c7.3,0,10.4,2.1,12.5,10.4l331.2,1124c2.1,8.3,0,13.5-8.3,13.5h-172.9
		c-8.3,0-13.5-2.1-15.6-9.4l-85.4-313.5L895.7,1483.2L895.7,1483.2z"/>
	<path class="st0" d="M1665.5,971.7c0-8.3,3.1-12.5,12.5-12.5h163.5c8.3,0,12.5,3.1,12.5,12.5v821.9c0,8.3-2.1,12.5-12.5,12.5H1680
		c-10.4,0-13.5-5.2-13.5-13.5V971.7H1665.5L1665.5,971.7z"/>
	<path class="st0" d="M1654,735.2c0-66.7,46.9-106.2,106.3-106.2c63.5,0,106.2,42.7,106.2,106.2c0,68.7-44.8,106.2-108.3,106.2
		C1697.8,841.4,1654,803.9,1654,735.2z"/>
	<path d="M1185.3,1314.3c-29.2-115.6-97.9-367.7-124-489.6h-2.1c-21.9,121.9-77.1,328.1-120.8,489.6H1185.3z"/>
</g>
</svg>
