<?xml version="1.0" encoding="utf-8"?>
<!-- Generator: Adobe Illustrator 20.1.0, SVG Export Plug-In . SVG Version: 6.00 Build 0)  -->
<svg version="1.1" id="Layer_1" xmlns="http://www.w3.org/2000/svg" xmlns:xlink="http://www.w3.org/1999/xlink" x="0px" y="0px"
	 viewBox="0 0 500 500" style="enable-background:new 0 0 500 500;" xml:space="preserve">
<style type="text/css">
	.st0{fill:#858585;}
	.st1{fill:#FFFFFF;}
</style>
<g>
	<g>
		<polygon class="st0" points="252,98 428.7,159.2 405.4,400 252,485.5 		"/>
		<polyline class="st1" points="252,485.5 98.5,401 71.3,161.2 252,98 		"/>
	</g>
	<path d="M369.1,404.1c-13.5,0-25.3,0.4-37.2-0.3c-2.8-0.2-6.8-3.7-8.1-6.5c-6.6-15.2-12.7-30.7-18.7-46.1c-1.8-4.6-4.1-6.8-9.5-6.7
		c-29.6,0.3-59.2,0.3-88.8,0c-5.6-0.1-7.6,2.4-9.4,7c-6,15.5-12.5,30.8-18.4,46.3c-1.9,5-4.3,6.8-9.5,6.6
		c-11.5-0.3-22.9-0.1-35.9-0.1C173,315.7,212,228.2,251.4,139.8C290.6,227.8,329.5,315.1,369.1,404.1z M216,307.8
		c24.3,0,46.8,0,70.7,0c-11.8-28.4-23.2-55.8-35.3-85C239.3,252,227.8,279.4,216,307.8z"/>
</g>
<g>
	<path class="st1" d="M63.1,8.7c0.6,0.5,1,1.2,1.2,1.9l18.2,52.1c0.1,0.2,0.1,0.4,0.1,0.6c0,0.5-0.2,0.9-0.5,1.3
		c-0.4,0.4-0.8,0.5-1.3,0.5H65.7c-1.6,0-2.7-0.7-3.2-2l-2-5.4H43l-2,5.4c-0.5,1.4-1.6,2-3.2,2h-15c-0.5,0-0.9-0.2-1.3-0.5
		c-0.4-0.4-0.5-0.8-0.5-1.3c0-0.2,0-0.4,0.1-0.6l18.2-52.1c0.2-0.7,0.6-1.3,1.2-1.9c0.6-0.5,1.4-0.8,2.4-0.8h17.7
		C61.7,7.9,62.5,8.2,63.1,8.7z M51.7,26.5l-4.6,15.2h9.2L51.7,26.5z"/>
	<path class="st1" d="M144.4,8.6c0.4,0.4,0.7,1,0.7,1.6v52.7c0,0.6-0.2,1.1-0.7,1.6c-0.4,0.4-1,0.7-1.6,0.7H130
		c-0.9,0-1.6-0.2-2.1-0.6c-0.5-0.4-0.9-0.8-1.2-1.3l-13.8-20.8V63c0,0.6-0.2,1.1-0.7,1.6c-0.4,0.4-1,0.7-1.6,0.7H95.8
		c-0.6,0-1.1-0.2-1.6-0.7c-0.4-0.4-0.7-1-0.7-1.6V10.1c0-0.6,0.2-1.1,0.7-1.6c0.4-0.4,1-0.7,1.6-0.7h12.9c1.5,0,2.6,0.6,3.3,1.9
		l13.8,22.6V10.1c0-0.6,0.2-1.1,0.7-1.6c0.4-0.4,1-0.7,1.6-0.7h14.8C143.5,7.9,144,8.1,144.4,8.6z"/>
	<path class="st1" d="M180.2,36c0,3.1,0,5.4,0.1,7c0.2,4.6,2.4,6.9,6.6,6.9c2.2,0,3.9-0.5,5.1-1.4c1.2-1,1.8-2.4,1.8-4.4H190
		c-0.6,0-1.1-0.2-1.6-0.7c-0.4-0.4-0.7-1-0.7-1.6v-9.1c0-0.6,0.2-1.1,0.7-1.6c0.4-0.4,1-0.7,1.6-0.7h22.5c0.6,0,1.1,0.2,1.6,0.7
		c0.4,0.4,0.7,1,0.7,1.6v10.6c0,4.8-1.2,8.9-3.6,12.2c-2.4,3.4-5.7,5.9-9.9,7.6s-9.1,2.6-14.7,2.6c-8.4,0-15-1.9-19.8-5.6
		c-4.8-3.8-7.3-9.4-7.7-16.8c-0.1-1.5-0.1-3.9-0.1-7.3c0-3.4,0-5.9,0.1-7.4c0.3-7.1,2.9-12.5,7.8-16.1S178.4,7,186.7,7
		c5.6,0,10.4,0.8,14.7,2.4c4.2,1.6,7.5,3.8,9.8,6.6s3.5,5.8,3.6,9.1c0,0.5-0.2,0.9-0.5,1.3c-0.4,0.4-0.8,0.5-1.3,0.5h-18
		c-1.1,0-1.9-0.3-2.4-0.9c-0.1-0.1-0.3-0.4-0.7-1s-1.1-1.1-2-1.5s-1.9-0.7-3.1-0.7c-4,0-6.1,2-6.3,6.1
		C180.3,30.6,180.2,32.9,180.2,36z"/>
	<path class="st1" d="M280.3,8.6c0.4,0.4,0.7,1,0.7,1.6v33.4c0,7.5-2.4,13-7.1,16.8c-4.7,3.7-11.2,5.6-19.3,5.6
		c-8.2,0-14.6-1.9-19.4-5.6c-4.8-3.7-7.1-9.3-7.1-16.8V10.1c0-0.6,0.2-1.1,0.7-1.6c0.4-0.4,1-0.7,1.6-0.7h16c0.6,0,1.1,0.2,1.6,0.7
		c0.4,0.4,0.7,1,0.7,1.6v33.1c0,2.1,0.5,3.6,1.5,4.7c1,1.1,2.5,1.6,4.5,1.6c2,0,3.5-0.5,4.5-1.6s1.5-2.6,1.5-4.7V10.1
		c0-0.6,0.2-1.1,0.7-1.6c0.4-0.4,1-0.7,1.6-0.7h16C279.4,7.9,279.9,8.1,280.3,8.6z"/>
	<path class="st1" d="M340.9,49c0.4,0.4,0.7,1,0.7,1.6v12.3c0,0.6-0.2,1.1-0.7,1.6c-0.4,0.4-1,0.7-1.6,0.7h-41.1
		c-0.6,0-1.1-0.2-1.6-0.7c-0.4-0.4-0.7-1-0.7-1.6V10.1c0-0.6,0.2-1.1,0.7-1.6c0.4-0.4,1-0.7,1.6-0.7h16.3c0.6,0,1.1,0.2,1.6,0.7
		c0.4,0.4,0.7,1,0.7,1.6v38.2h22.6C339.9,48.3,340.5,48.5,340.9,49z"/>
	<path class="st1" d="M391.3,8.7c0.6,0.5,1,1.2,1.2,1.9l18.2,52.1c0.1,0.2,0.1,0.4,0.1,0.6c0,0.5-0.2,0.9-0.5,1.3
		c-0.4,0.4-0.8,0.5-1.3,0.5h-15.1c-1.6,0-2.7-0.7-3.2-2l-2-5.4h-17.6l-2,5.4c-0.5,1.4-1.6,2-3.2,2h-15.1c-0.5,0-0.9-0.2-1.3-0.5
		c-0.4-0.4-0.5-0.8-0.5-1.3c0-0.2,0-0.4,0.1-0.6l18.2-52.1c0.2-0.7,0.6-1.3,1.2-1.9c0.6-0.5,1.4-0.8,2.4-0.8h17.7
		C389.9,7.9,390.7,8.2,391.3,8.7z M379.9,26.5l-4.6,15.2h9.2L379.9,26.5z"/>
	<path class="st1" d="M474.6,63.3c0,0.5-0.2,0.9-0.5,1.3c-0.4,0.4-0.8,0.5-1.3,0.5h-16.7c-1,0-1.8-0.2-2.3-0.7c-0.6-0.5-1-1-1.2-1.5
		l-7-15.6h-3.3v15.6c0,0.6-0.2,1.1-0.7,1.6c-0.4,0.4-1,0.7-1.6,0.7h-16c-0.6,0-1.1-0.2-1.6-0.7c-0.4-0.4-0.7-1-0.7-1.6V10.1
		c0-0.6,0.2-1.1,0.7-1.6c0.4-0.4,1-0.7,1.6-0.7h24.2c7.8,0,14,1.8,18.4,5.3s6.6,8.4,6.6,14.6c0,3.5-0.8,6.7-2.4,9.3
		c-1.6,2.7-3.7,4.9-6.5,6.7l10,18.6C474.5,62.7,474.6,63,474.6,63.3z M448.2,31.8c1.2,0,2.1-0.4,2.8-1.2c0.7-0.8,1-1.8,1-3
		s-0.3-2.2-0.9-3.1c-0.6-0.9-1.6-1.3-2.8-1.3h-6v8.7h5.9V31.8z"/>
</g>
</svg>
