<?xml version="1.0" encoding="utf-8"?>
<!-- Generator: Adobe Illustrator 20.1.0, SVG Export Plug-In . SVG Version: 6.00 Build 0)  -->
<svg version="1.1" id="Layer_1" xmlns="http://www.w3.org/2000/svg" xmlns:xlink="http://www.w3.org/1999/xlink" x="0px" y="0px"
	 viewBox="0 0 500 500" style="enable-background:new 0 0 500 500;" xml:space="preserve">
<style type="text/css">
	.st0{fill:#FFFFFF;}
	.st1{fill:#4D4D4D;}
	.st2{fill:#FEFEFE;}
</style>
<g>
	<path class="st0" d="M251.3,106.8c53.7,0,107.3,0.1,161-0.1c4.8,0,6.3,1,5.8,6c-3.4,35.3-6.5,70.6-9.6,106
		c-2.8,31.7-5.6,63.4-8.5,95c-2.9,32-5.7,64-8.6,96c-1.1,11.8-2.2,23.5-3.1,35.3c-0.2,2.7-1,4-3.7,4.8c-43.5,12-86.9,24-130.4,36.1
		c-2.6,0.7-4.9,0.4-7.3-0.3c-43-11.9-85.9-23.9-128.9-35.8c-2.8-0.8-4-1.9-4.2-5c-2.8-32.4-5.8-64.7-8.7-97
		c-3.2-35.7-6.3-71.3-9.5-107c-3.2-35.7-6.3-71.3-9.5-107c-0.6-7-1.4-13.9-1.9-20.9c-0.5-6.3-0.4-6.3,5.7-6.3
		C143.6,106.8,197.5,106.8,251.3,106.8z"/>
	<path class="st0" d="M303.1,49.9c-4.4,6.7-8.9,13.4-13.6,20.6c-4.8-7.3-9.2-14.1-13.6-20.8c-0.4,0.1-0.7,0.2-1.1,0.3
		c0,8.1-0.2,16.1,0.1,24.2c0.1,3.9-1,5.4-5,5.1c-4.1-0.3-8.3-0.2-12.5,0c-2.4,0.1-3.7-0.5-3.7-3.3c0.1-19.2,0.1-38.3,0-57.5
		c0-2.7,1.1-3.6,3.6-3.3c0.2,0,0.3,0,0.5,0c6,0.1,12.7-1.4,17.7,0.8c4.9,2.2,6.4,9.3,9.7,14.1c1.4,2.1,2.7,4.2,4.5,7.2
		c3.7-6.1,7.3-11.5,10.4-17.3c2-3.6,4.3-5.4,8.6-5c4.3,0.4,8.7,0.2,13,0.1c2.9-0.1,4.1,0.7,4.1,3.9c-0.1,18.8-0.1,37.6,0,56.5
		c0,2.8-0.9,3.8-3.7,3.7c-4.5-0.2-9-0.2-13.5,0c-3.4,0.2-4.7-0.9-4.6-4.5c0.2-8.1,0.1-16.3,0.1-24.4
		C303.8,50.2,303.5,50.1,303.1,49.9z"/>
	<path class="st0" d="M114.2,47c0-9.2,0.1-18.3-0.1-27.5c-0.1-3.1,0.7-4.6,4.1-4.4c4.5,0.3,9,0.3,13.5,0c3.4-0.2,4.3,1.2,4.1,4.4
		c-0.2,4.5,0,9-0.1,13.5c-0.1,2.4,0.8,3.4,3.2,3.2c0.2,0,0.3,0,0.5,0c5-0.3,11.2,2,14.5-0.9c3.1-2.8,1.1-9.2,0.8-13.9
		c-0.3-5,1.1-6.9,6.3-6.3c3.4,0.4,7,0.4,10.5,0c4.2-0.4,5,1.4,5,5.1c-0.2,18-0.2,36,0,54c0,3.9-1.1,5.3-5,5c-4.1-0.3-8.3-0.3-12.5,0
		c-3.4,0.2-4.3-1.1-4.1-4.3c0.2-4.5-0.1-9,0.1-13.5c0.1-2.9-1-3.8-3.8-3.6c-4,0.2-8,0.2-12,0c-2.6-0.1-3.6,0.8-3.5,3.4
		c0.2,4.8-0.1,9.7,0.1,14.5c0.1,2.6-0.9,3.5-3.5,3.5c-4.7-0.1-9.3-0.2-14,0c-3.3,0.2-4.3-1-4.3-4.2C114.3,65.7,114.2,56.3,114.2,47z
		"/>
	<path class="st0" d="M215.3,15.2c8.3,0,16.7,0.1,25-0.1c3.3-0.1,4.9,0.7,4.6,4.4c-0.3,4.5-0.2,9,0,13.5c0.1,2.6-0.9,3.6-3.5,3.5
		c-3.8-0.1-7.7,0.1-11.5-0.1c-3-0.1-4,0.9-4,4c0.2,11.3-0.1,22.7,0.1,34c0.1,3.7-0.9,5.1-4.7,4.8c-4.1-0.3-8.3-0.3-12.5,0
		c-3.7,0.3-4.9-0.9-4.8-4.7c0.2-11.2,0-22.3,0.2-33.5c0.1-3.5-1-4.6-4.5-4.6c-4.6,0-11.4,2.3-13.3-1c-2.9-5-0.8-12-0.9-18.1
		c0-2.5,2.1-2.1,3.7-2.1C197.9,15.2,206.6,15.2,215.3,15.2z"/>
	<path class="st0" d="M336,47c0-9.3,0.1-18.6-0.1-28c-0.1-3.1,1-4.1,4-3.9c4.7,0.2,9.3,0.2,14,0c3.1-0.1,4,1.1,4,4.1
		c-0.1,11.5,0.1,23-0.1,34.5c0,3.3,1,4.4,4.3,4.3c7.2-0.2,14.3,0.1,21.5-0.1c3-0.1,4.2,0.8,4.1,4c-0.2,4.7-0.1,9.3,0,14
		c0.1,2.5-0.8,3.5-3.5,3.5c-14.8-0.1-29.6-0.1-44.5,0c-2.8,0-3.7-0.9-3.7-3.7C336.1,66,336,56.5,336,47z"/>
	<path d="M251,176.8c0-12,0.1-24-0.1-36c-0.1-4.3,1.4-5.9,5.8-5.9c41.8,0.1,83.6,0.1,125.5,0c4.7,0,5.8,1.4,5.3,6.2
		c-1.8,16.8-3,33.8-4.5,50.7c-1.5,16.9-3.2,33.7-4.7,50.6c-1.5,16.7-2.8,33.5-4.3,50.2c-1.5,16.9-3.2,33.7-4.7,50.6
		c-1.2,12.9-2.1,25.8-3.3,38.7c-1.2,13.4-2.6,26.8-3.7,40.2c-0.3,3.8-2.2,5.5-5.7,6.4c-27.1,7.4-54.3,15-81.4,22.5
		c-6.4,1.8-12.9,3.4-19.3,5.4c-3.8,1.2-5.1,0.1-5-3.8c0.1-12.8,0-25.7,0-38.5c0.2-1.2,1-2.1,1.9-2.9c11-4.1,22.4-6.5,33.6-9.8
		c13-3.7,25.9-7.5,39-10.7c6.1-1.5,9.1-4.7,9.6-10.9c1-12.6,2.3-25.2,3.4-37.8c1.4-16.9,3.1-33.8,4.5-50.7
		c0.5-6.5,1.4-12.9,1.5-19.4c0.1-6-1.2-7.4-7.3-7.4c-17.7-0.1-35.3,0-53-0.1c-11.3,0-22.7,0.2-34-0.2c-16,0.5-32.1,0.2-48.1,0.1
		c-2.5,0-5.5,0.4-6.4-3.1c1.4-3.2,4.4-2.6,6.9-2.6c11.6-0.2,23.3-0.1,34.9-0.1c9.5,0,10.9-1.5,11-11c0-7.1,0-14.3,0-21.4
		c0-2.7,0.1-5.3,1.9-7.6c2.1-1.4,4.5-0.9,6.8-0.9c21.9,0,43.9-0.2,65.8,0.1c7.1,0.1,13.9-1.4,20.8-2c1.4-0.1,2.6-0.7,3.6-1.5
		c2.3-1.8,2.7-4.4,3-7.1c0.5-5.9,1-11.9,1.7-17.8c0.9-7.4-1-9.7-8.7-9.7c-27.6-0.1-55.1,0-82.7-0.1c-2.9,0-6,0.4-8.8-1.2
		C251.5,177.9,251.2,177.4,251,176.8z"/>
	<path class="st1" d="M351.9,218c-1.8,1.8-4.1,1-6.1,1c-31.6,0.1-63.2,0.1-94.8,0.1c-2.1,2.5-5,2.3-7.8,2.3
		c-12.9,0.1-25.9,0-38.8,0.1c-8,0-9.3,1.3-8.9,9.3c0.3,6.1,1,12.2,1.6,18.3c0.4,4.1,0.9,8.3-1.4,12.1c1.8,1.2,3.8,0.7,5.8,0.7
		c16.5,0.1,33,0.1,49.6,0.1c2.3,1.7,2.3,4.3,2.4,6.7c0.1,7.5,0,14.9,0.1,22.4c0.1,7.3,2,9.2,9.2,9.3c11.4,0.2,22.9-0.2,34.3,0.2
		c2.4,0.1,6.2-1,5.9,3.7c-1.9,2-4.5,2-7,2c-12.6,0.1-25.2,0.1-37.7,0c-2.6,0-5.4,0.1-7.2-2.5c-2.2-0.1-4.3-0.3-6.5-0.3
		c-27.1,0-54.3-0.1-81.4,0.1c-4.4,0-5.9-1.2-6.3-5.8c-3.2-38.7-6.7-77.3-10.3-115.9c-0.4-4.1,0.6-5.1,4.6-5.1
		c31.1,0.1,62.3,0.1,93.4,0.1c2.2,0,4.3-0.1,6.5-0.2l-0.1,0.4c2.3,1.5,2.3,3.9,2.4,6.2c0.2,6.5,0.1,13,0.1,19.4
		c0,11.6,1.1,12.7,12.9,12.7c25.6,0,51.2,0,76.8,0.1C346.2,215.6,349.6,215,351.9,218z"/>
	<path class="st2" d="M302.8,304.2c-1.7-1.9-4-1.3-6.1-1.3c-13.3,0-26.5-0.2-39.8,0.1c-4.6,0.1-6.1-1.5-6-6
		c0.2-11.6,0.1-23.2,0.1-34.8c21.8-0.1,43.6-0.2,65.4-0.2c9,0,18,0.2,27-0.1c3.9-0.1,4.8,1.2,4.5,4.9c-2.6,27.5-5,55-7.5,82.6
		c-1.1,12.4-2.3,24.9-3.3,37.3c-0.2,2.5-0.9,3.9-3.5,4.6c-26.8,7.3-53.6,14.7-80.4,22.1c-3.2,0.7-4.2-1.4-4.4-3.9
		c-0.6-11.5-0.5-23.1,0-34.6c0.1-1.6,0.8-2.8,2.2-3.7c0.3-0.3,0.6-0.7,0.9-1c1.7-3.3,5.1-3.4,8-4.3c9.2-2.7,18.6-5,27.9-7.5
		c6.4-1.8,8.1-3.8,8.6-10.4c0.9-12.4,2.3-24.7,3.1-37.1C299.7,307.9,300.7,305.8,302.8,304.2z"/>
	<path class="st1" d="M251,371c0,12,0,24.1,0,36.1c0,2.3-0.5,4.8,2.2,6.1c-0.8,0.3-1.5,0.7-2.3,1c-26.8-7.5-53.5-15-80.3-22.3
		c-3.8-1-5.7-2.4-6-6.9c-1.4-19.3-3.3-38.5-5.1-57.7c-0.3-3,0.3-4.2,3.6-4.2c11.3,0.1,22.6,0.1,34,0c2.9,0,4.1,0.9,4.3,3.9
		c0.7,9,1.8,17.9,2.4,26.9c0.2,3.2,1.3,4.6,4.4,5.4C222.5,363,236.7,367,251,371z"/>
	<path class="st1" d="M302.8,304.2c-1.5,16.5-3.2,33.1-4.6,49.6c-0.3,3.1-1.2,4.6-4.4,5.4c-14,3.4-27.7,8-41.9,10.8
		c-1.1-1.8-0.9-3.8-0.9-5.8c0-20.1,0-40.2,0-60.2C268.3,303.9,285.6,303.3,302.8,304.2z"/>
	<path class="st2" d="M351.9,218c-31.4,0-62.9,0-94.3,0c-6.4,0-6.6-0.2-6.6-6.9c0-11.3,0-22.6,0-33.9c23.1-0.1,46.2-0.2,69.3-0.2
		c10.5,0,20.9,0,31.4,0c2.2,0,4.3-0.3,3.9,3.3C354.2,192.8,353.1,205.4,351.9,218z"/>
	<path class="st0" d="M195.7,261.2c-1.2-13-2.4-26.1-3.7-39.1c-0.2-2.4,0.7-3.3,3.1-3.3c18.6,0.1,37.3,0.2,55.9,0.3
		c0,12.1-0.1,24.3,0.1,36.4c0.1,4.1-1.4,5.6-5.5,5.6C228.9,261,212.3,261.1,195.7,261.2z"/>
</g>
</svg>
