<?xml version="1.0" encoding="utf-8"?>
<!-- Generator: Adobe Illustrator 20.1.0, SVG Export Plug-In . SVG Version: 6.00 Build 0)  -->
<svg version="1.1" id="Layer_1" xmlns="http://www.w3.org/2000/svg" xmlns:xlink="http://www.w3.org/1999/xlink" x="0px" y="0px"
	 viewBox="0 0 263 342" style="enable-background:new 0 0 263 342;" xml:space="preserve">
<style type="text/css">
	.st0{fill:#FFFFFF;}
</style>
<g>
	<path class="st0" d="M54.7,302c6.1-2,9.9-7.5,10-15.1c0.1-17.8,0.1-35.6,0.1-53.4c0-1.4,0-2.8,0-4.5c3.4,0,6.5,0,9.9,0
		c0,1.4,0,2.6,0,3.8c0,17.5-0.2,34.8,0.1,52.3c0.2,10.4-3.9,17.7-13.2,22.2c-0.3,0.2-0.5,0.5-0.8,0.8c-2.1,0-4.1,0-6.1,0
		C54.7,306.1,54.7,304.1,54.7,302z"/>
	<path class="st0" d="M208.4,211.3c-2.2,4.4-5.8,6.9-10.2,8.8c-10.2,4.5-21.1,6.1-32,7.1c-12,1.1-24.1,1.8-36.1,1.4
		c-12.6-0.4-25.1-2.2-37.7-3.5c-1.7-0.2-3.3-1.1-4.4-1.4c13.4,0.6,27.3,1.9,41.1,1.8c21.6-0.2,43.2-1.5,64-8.1
		c5.3-1.7,10.1-5.1,15.1-7.7C208.4,210.3,208.4,210.8,208.4,211.3z"/>
	<path class="st0" d="M208.4,158.3c-5.2,14.9-18.7,18.5-31.7,22.7c4.8-3.4,9.9-6.5,14.4-10.3c3-2.6,5.5-6,7.5-9.5
		c2.4-4.1,1.9-8.5-1.1-12.1c-3.2-3.8-7.2-5.6-12.2-4.7c-1.1,0.2-2.2,0.4-3.5,0.6c6.1-7.6,20.8-3.2,26.6,7.9
		C208.4,154.7,208.4,156.5,208.4,158.3z"/>
	<path class="st0" d="M108.6,263.7c0-1.5,0-2.4,0-3.3c0-6.4-2.5-9.2-9-9.1c-4.5,0.2-9,1.2-14.1,2c-0.3-1.4-0.8-3.2-1.3-5.2
		c7.7-3.5,15.4-4.8,23.4-3.2c6.8,1.4,10.6,5.6,10.8,12.5c0.3,11.1,0.1,22.2,0.1,33.6c-2.5,0-4.9,0-7.5,0c-0.4-1.2-0.8-2.5-1.2-4.2
		c-4.5,3.8-9.5,5.8-15.5,5.5c-6-0.4-10.1-2.8-11.7-7.6c-2-5.6-0.4-12.2,3.8-15.8c4.8-4,10.5-4.8,16.5-5.2
		C104.6,263.7,106.3,263.7,108.6,263.7z M108.6,269.4c-4.5,0.7-8.6,0.8-12.5,1.9c-4.2,1.2-5.5,4.4-4.5,9.1c0.6,3.2,3.1,5.2,7.1,4.6
		c3-0.5,5.9-2,8.7-3.3c0.6-0.3,1.1-1.7,1.2-2.5C108.6,276.3,108.6,273.4,108.6,269.4z"/>
	<path class="st0" d="M204.6,291.2c-2.8,0-5,0-7.5,0c-0.2-1.4-0.3-2.6-0.5-4.3c-1.2,0.8-2.1,1.3-3,1.9c-4.9,3.5-10.4,4.2-16.1,3.2
		c-4.7-0.8-8.1-4.4-8.9-8.8c-1.2-6.5,0.6-12.5,5.8-15c4.5-2.2,9.6-3.1,14.5-4.2c1.9-0.5,4.1-0.1,6-0.1c1.8-8.5-1.5-12.8-9.8-12.4
		c-4.2,0.2-8.5,1.3-12.8,2.1c-2.4-5.4-2.4-5.4,3.2-7.1c6.9-2.2,14-3,21.1-0.6c4.9,1.6,7.7,5.3,7.8,10.3c0.3,10.6,0.1,21.2,0.1,31.9
		C204.6,288.8,204.6,289.8,204.6,291.2z M195.3,269.3c-4.8,0.7-9,0.9-12.9,2c-3.7,1-5.4,4.8-4.6,8.5c1,4.4,4.7,6.6,9.8,5.1
		c3.1-0.9,7.1-1.6,7.6-5.8C195.7,276.3,195.3,273.3,195.3,269.3z"/>
	<path class="st0" d="M133.6,141.6c-9.1-7.2-17.7-14.8-23.4-25c-5-9-4.3-17,3.3-24.4c7.5-7.3,15.8-13.7,23.8-20.5
		c7.3-6.3,14.5-12.8,16.6-22.8c1.1-4.8,0.8-10,1.2-15.1c4.5,5.8,5,12.7,3.4,19.6c-2.7,11.5-10.3,19.8-18.8,27.4
		c-4.4,3.9-9.1,7.5-13.2,11.7c-10.7,10.8-11.6,20.4-3.6,33.1C126.4,130.9,130.1,136.2,133.6,141.6z"/>
	<path class="st0" d="M145.9,280.9c2.9-11.7,5.8-23.4,8.8-35.5c2.5,0,5.8,0,9.9,0c-2.7,10-5.2,19.7-8.1,29.2
		c-1.4,4.8-3.5,9.2-5.3,13.9c-0.8,2-1.8,2.9-4.2,2.9c-8.9,0-8.9,0.1-11.7-8.8c-3.7-11.9-7.5-23.8-11.1-35.7c-0.2-0.5-0.2-1-0.2-1.6
		c3.5,0,6.8,0,10.3,0c3.6,11.8,7.1,23.6,10.8,35.4C145.3,280.7,145.6,280.8,145.9,280.9z"/>
	<path class="st0" d="M90.6,198c-5.4,1.6-9.9,2.8-14.3,4.4c-1.5,0.6-2.7,2.4-4,3.6c1.5,1,2.9,2.6,4.5,2.9c7.8,1.5,15.8,3.2,23.8,3.8
		c20.5,1.8,41.2,1.3,61.7-0.8c9.5-0.9,18.8-2.9,28.2-4.8c3.3-0.7,6.6-2.3,6.6-7c3,2.2,2.9,4.5,0.5,6.1c-3.2,2.1-6.6,3.8-10.2,5.1
		c-12.4,4.3-25.3,5.8-38.3,6.8c-19.8,1.6-39.7,1.2-59.4-0.8c-8.5-0.8-16.9-2.3-25.3-3.9c-1.8-0.4-3.5-2.5-5.2-3.8
		c1.3-1.7,2.3-4,4.1-5.1c6.8-4.5,14.6-6.5,22.8-7.1C87.4,197.4,88.7,197.8,90.6,198z"/>
	<path class="st0" d="M143.1,147.9c0.2-0.5,0.5-1.1,0.8-1.5c4.4-7.2,3.7-11.5-1.5-18.4c-3.2-4.4-6.1-9.5-7.7-14.7
		c-2.3-7.9,1.2-14.8,6.8-20.4c9.7-9.6,22-14.5,34.6-18.5c0.2,0.3,0.5,0.5,0.7,0.8c-0.5,0.2-1,0.5-1.5,0.7c-0.5,0.3-1.2,0.6-1.6,1
		c-7.2,5.2-14.8,10-21.5,15.9c-8.3,7.4-8.5,13.4-2.5,22.6c1.2,1.8,2.5,3.6,3.7,5.4c4.5,6.5,4.9,12.1,0.2,18.3
		c-2.8,3.6-6.5,6.5-9.7,9.8C143.8,148.4,143.5,148.2,143.1,147.9z"/>
	<path class="st0" d="M105.6,183.2c-1,3.6,0.8,4.6,3.3,5c10.5,1.8,21,2.3,31.6,1.1c4.1-0.5,8.1-1.3,12.1-1.7c1.3-0.2,2.8,0.2,4,0.8
		c2.9,1.2,5.7,2.8,8.8,5.2c-7.4,1.8-14.6,3.9-22.1,5.2c-12.1,2-24.1,1.5-36-2.1c-2.6-0.8-5.3-2-7.5-3.6c-3.2-2.3-3-5.2,0.5-7.2
		C101.7,184.9,103.4,184.3,105.6,183.2z"/>
	<path class="st0" d="M108.7,143.7c-7.1,2.8-13.8,3.4-19.1,8.4c3.5,3.5,7.9,3.5,11.7,3.5c14.7,0,29.4-0.2,44.1-0.9
		c9.7-0.5,19.2-2.1,29.2-3.2c-5.4,4.6-11.8,5.7-18.2,6.7c-22.1,3.4-44.3,4.2-66.5,1.5c-4-0.5-7.9-1.7-11.8-2.8
		c-1-0.3-2.4-1.6-2.4-2.5c0-0.9,1.2-2.2,2.2-2.8C84.6,147.4,99,143.6,108.7,143.7z"/>
	<path class="st0" d="M101.1,166.7c-2.2,4.8-1.5,6.2,3.6,7c15.3,2.2,30.5,2,45.8-0.4c2-0.3,4.1-0.5,6-1.1c2.7-0.7,5.2-0.7,7.4,1.5
		c1.2,1.2,3,1.8,5.5,3.2c-7.6,1.5-14.4,3.6-21.2,4.2c-11.8,0.8-23.7,1.1-35.5,0.8c-5.4-0.2-10.8-1.8-15.9-3.4
		c-2-0.6-4.6-2.8-4.8-4.5c-0.2-1.5,2.5-3.6,4.2-5.1C97.4,168,99.3,167.6,101.1,166.7z"/>
</g>
</svg>
