<?xml version="1.0" encoding="utf-8"?>
<!-- Generator: Adobe Illustrator 20.1.0, SVG Export Plug-In . SVG Version: 6.00 Build 0)  -->
<svg version="1.1" id="Layer_1" xmlns="http://www.w3.org/2000/svg" xmlns:xlink="http://www.w3.org/1999/xlink" x="0px" y="0px"
	 viewBox="0 0 500 500" style="enable-background:new 0 0 500 500;" xml:space="preserve">
<style type="text/css">
	.st0{fill:#FFFFFF;}
</style>
<g>
	<path class="st0" d="M33.2,483.9c-1.7-0.3-3.4-0.6-5.3-0.9c1.3-5.5,2.5-10.9,4-16.4c0.2-0.7,1.2-1.4,2-1.5c2.1-0.4,4.2-0.8,6.3-0.8
		c2.4,0,3.6-1.1,4.7-3c4.8-8.7,6.8-18.2,8.7-27.8c2-9.8,4.4-19.6,6.6-29.4c0.5-2,1.6-2.7,3.7-2.6c5.9,0.2,11.8,0.1,18.1,0.1
		c-0.6,2.9-1.2,5.6-1.8,8.3c-4.1,17.6-8.1,35.2-12.3,52.8c-0.6,2.3-1.4,4.6-2.2,6.9c-3,8.1-8.6,12.9-17.3,13.9
		c-0.5,0.1-0.9,0.3-1.3,0.5C42.5,483.9,37.8,483.9,33.2,483.9z"/>
	<path class="st0" d="M127.1,67.1c-0.9,4.8-1.9,9.6-2.6,14.5c-6.1,37.8-2.6,74.2,16.6,108.1c12.4,21.8,29.6,39.4,49.8,54
		c17.6,12.7,36,24,57,30.5c14.5,4.5,29.3,6.9,44.4,7.4c25.7,1,50.2-3.5,73.4-14.6c12.1-5.8,23-13.4,32.7-22.8c0.5-0.5,1-0.9,1.5-1.4
		c0.1-0.1,0.3-0.1,1.2,0.3c-4.4,6.8-8.4,14-13.4,20.5c-22.4,28.8-51.4,47.5-87.4,53.6c-65.7,11.1-120.9-9-165.2-58.6
		c-19.9-22.3-33.3-48.3-39.3-77.7c-6.9-33.6-3.6-65.8,15.5-95.2c3.9-6,8.7-11.3,13.2-16.9c0.6-0.7,1.4-1.2,2-1.8
		C126.7,66.8,126.9,67,127.1,67.1z"/>
	<path class="st0" d="M408.8,160.9c-4.8,12.5-12.1,23.1-22,31.9c-15,13.5-32.8,21.5-52.5,24.9c-50,8.6-90.6-8.4-122.7-46.9
		c-12.7-15.2-21-32.6-24.2-52.2c-4.8-29.3,0.8-55.9,20.4-78.9c0.4-0.4,0.8-0.8,0.6-0.6c-0.8,10.9-2.4,22.4-2.3,33.8
		c0.4,36.7,15.7,66.2,44.7,88.6c17.4,13.4,36.4,24.2,58.2,28.8c37.3,8,70-0.6,97.6-27.5C407.4,162.2,408.1,161.5,408.8,160.9z"/>
	<path class="st0" d="M169,434.3c3.5,0.2,6.7,0.4,10.3,0.6c-1.5,6.2-3,12.2-4.4,18.3c-5.3,0-10.4,0-15.5,0
		c-14.9-0.1-29.8,0.1-44.6-0.5c-13.8-0.6-23.5-10.3-25-24.1c-1.9-17.6,1.8-34,11.5-48.9c10.5-16.1,25.9-22.7,44.6-21.8
		c12.4,0.6,23,5.3,29.7,16.3c5.4,8.8,6.5,18.4,3.7,28.2c-2.7,9.7-6,19.2-9.1,28.7C169.8,432,169.5,432.9,169,434.3z M148.3,434.4
		c3.3-13.1,6.8-25.6,9.5-38.3c1.4-6.4-1.1-12.1-6.9-15.8c-8.7-5.5-25.9-3.7-31.4,9.4c-4,9.4-6.4,19.2-7.3,29.4
		c-0.7,7.5,3.1,13.2,10.6,14.2C131.1,434.3,139.6,434.1,148.3,434.4z"/>
	<path class="st0" d="M327.4,435.7c-1.3,6-2.5,11.6-3.9,17.9c-15.3-0.4-30.6-0.3-45.8-1.2c-10.6-0.6-17.4-9-16.7-19.6
		c0.8-12.6,3.3-24.9,8.8-36.4c1.6-3.5,4.2-6.9,7.2-9.3c12.9-10.3,27.5-13.4,43.3-8.4c10.1,3.2,15.3,10.9,14.5,21.5
		c-0.5,7.1-2,14.1-3.2,21.2c-0.1,0.7-1.6,1.5-2.4,1.5c-5.6,0.1-11.2,0.1-16.8,0.1c-8.7,0-17.4,0.1-26.1-0.1c-2.3,0-3.3,0.7-3.6,2.9
		c-0.7,4.4,1.2,7.6,5.6,8.3c4.6,0.7,9.2,0.9,13.9,1c7.7,0.2,15.5,0.3,23.2,0.4C325.7,435.5,326.3,435.6,327.4,435.7z M312.9,406.6
		c1.2-4.3,0.1-7.8-3-9.8c-8.7-5.5-20.9-0.4-23.3,9.8C295.4,406.6,304.2,406.6,312.9,406.6z"/>
	<path class="st0" d="M216.8,378.8c-2.2,10.3-4.5,19.8-6.1,29.5c-1.2,6.9-1.5,14-2.1,21c-0.1,1.6,0.4,3.2,0.6,5.1
		c6.7,0,13.2,0.1,19.6-0.1c0.6,0,1.6-1.2,1.8-2c3.7-16.6,7.4-33.2,11.1-49.8c0.2-1.1,0.5-2.2,0.8-3.4c6.5,0,12.8,0,19.4,0
		c-5.2,24.7-10.4,49.4-15.5,73.8c-14.5,0-28.8,0.5-42.9-0.2c-10.4-0.5-16.5-7.5-16.2-17.9c0.2-7.8,1.5-15.6,2.9-23.3
		c1.8-10.2,4.1-20.3,6.1-30.4c0.4-1.8,1.1-2.3,2.9-2.3C204.7,378.8,210.2,378.8,216.8,378.8z"/>
	<path class="st0" d="M277.7,21c-0.3,5.8-0.8,11.3-0.8,16.8c0.1,17.2,5.8,32.5,17.1,45.4c14,16,31.2,27,52.3,31.2
		c15.9,3.2,31.1,0.3,45.7-6.2c0.9-0.4,1.7-0.8,3.3-1.5c-3.6,5.6-7.5,10-12.2,13.7c-9.1,7.3-19.7,10.8-31.1,11.4
		c-18.1,1-35.4-2-50.7-12.2c-19.8-13.3-32.3-31.9-36.1-55.5C262.8,48.2,267.9,33.9,277.7,21z"/>
	<path class="st0" d="M392.6,401.8c5.6,0,10.9,0,16.2,0c5.6,0,5.6,0,7.3,5.4c0.6,1.9,1.2,3.8,2,6.3c1.2-1.6,2.1-2.8,2.9-4.1
		c9.1-13.2,18.2-26.4,27.3-39.7c1.1-1.6,2.2-2.3,4.2-2.3c7,0.1,13.9,0,21.5,0c-0.7,1.3-1.1,2.2-1.6,3c-8.7,11.8-17.3,23.7-26.3,35.4
		c-9.5,12.4-18.8,24.8-24.6,39.5c-1,2.4-1.3,5.8-3.1,6.9c-2,1.2-5.2,0.5-7.9,0.5c-4.2,0-8.3,0-12.5,0c-0.3,0-0.5-0.1-0.6-0.2
		c1-3.8,2.3-7.6,2.9-11.4c1.2-7.6-1-14.7-3.1-21.9c-1.4-4.8-2.7-9.7-4-14.5C392.9,403.9,392.8,403.1,392.6,401.8z"/>
	<path class="st0" d="M351.5,378.8c16.6,0,32.8-0.2,48.9,0.1c6.5,0.1,9.5,3.1,11.1,9.4c0.7,2.7,1,5.4,1.6,8.4c-15.2,0-30.1,0-45.3,0
		c-1.6,7.5-3.2,14.8-4.8,22.1c-2.3,10.6-4.5,21.2-6.8,31.7c-0.3,1.2-0.3,2.5-2.2,2.4c-6-0.1-12,0-18.4,0
		C341,428,346.2,403.3,351.5,378.8z"/>
	<path class="st0" d="M86.8,378.6c-1.2,5.6-2.2,10.7-3.4,15.7c-0.1,0.6-1.2,1.3-1.8,1.3c-6.5,0.1-12.9,0.1-19.8,0.1
		c1.3-5.5,2.4-10.7,3.7-15.9c0.1-0.5,1.1-1.1,1.7-1.1C73.5,378.6,79.9,378.6,86.8,378.6z"/>
</g>
</svg>
