<?xml version="1.0" encoding="utf-8"?>
<!-- Generator: Adobe Illustrator 20.1.0, SVG Export Plug-In . SVG Version: 6.00 Build 0)  -->
<svg version="1.1" id="Layer_1" xmlns="http://www.w3.org/2000/svg" xmlns:xlink="http://www.w3.org/1999/xlink" x="0px" y="0px"
	 viewBox="0 0 500 500" style="enable-background:new 0 0 500 500;" xml:space="preserve">
<style type="text/css">
	.st0{fill:#FFFFFF;}
	.st1{fill:#989898;}
</style>
<path class="st0" d="M251.9,103.2c52.6,0,105.2,0.2,157.8-0.2c10.8-0.1,14.6,2.5,13.4,14.2c-9,93.7-17.5,187.4-26.1,281.1
	c-1.3,14.5-2.9,29-3.6,43.6c-0.4,8.6-3.1,13.5-12.1,16c-40.5,11-80.9,22.6-121.2,34.2c-6.2,1.8-12,1.5-18.2-0.3
	c-39.9-11.6-79.9-22.9-119.9-34c-7-1.9-11.6-4.5-12.4-12.9C100,336.6,90,228.4,80.3,120.2c-1.5-16.9-1.1-17,16.5-17
	C148.5,103.1,200.2,103.2,251.9,103.2z"/>
<path d="M252.8,262.9c28.7-0.1,57.3,0,86-0.5c10.1-0.2,13.3,3.9,12.3,13.4c-3.6,36.8-7,73.7-10.4,110.6c-0.5,5.5-2.7,9-8.1,10.5
	c-24.7,6.7-49.3,13.5-73.9,20.3c-5.2,1.7-9.7-0.5-10.4-5.2c-1.8-12.7-6.2-26.2,4.6-37.5l-0.4-0.7c4.9-7.6,12.6-10.2,20.9-12.6
	c17.8-5.1,27.3-24.7,20.6-41.7c-3.1-7.9-10.2-7.4-16.8-7.6c-10.1-0.3-20.6,1-27.9-8.5C245.8,289.4,242.3,275.6,252.8,262.9z"/>
<path class="st1" d="M252.8,262.9c0,14,0,28.1,0.1,42.1c-21.4,3.6-42.9,1.1-64.4,1.4c-11.2,0.1-22.7,2.4-33.8-1.7
	c3.6-38.7,7.4-77.3,10.6-116c0.8-10,4.4-14,14.6-13.8c24.3,0.5,48.6,0.3,72.8,0.3c8.9,11.9,8.9,30.7,0,42.6
	c-13.2,0.1-26.3,0.3-39.5,0.2c-7.7-0.1-11.4,3.2-11,11c0.1,2.2-0.1,4.4-0.2,6.6c-1,27.1-1,27.1,27,27.1
	C237,262.7,244.9,262.8,252.8,262.9z"/>
<path class="st1" d="M252.9,374.5c-0.1,9.7-0.1,19.4-0.2,29c0,5.4,0.2,10.7,5.9,13.6c-4.5,3-9.2,2.1-14,0.7
	c-23.4-6.7-46.7-13.4-70.2-19.8c-7.7-2.1-12-5.5-12.5-14.3c-0.8-15-2.8-29.9-4.5-44.8c-0.9-8.4,2.1-12.7,10.9-12.1
	c3.1,0.2,6.2,0,9.3,0c22.6,0,22.9,0,24.5,23c0.5,7.8,3.3,12.2,11,14C226.6,367.1,239.7,370.9,252.9,374.5z"/>
<path d="M252.8,217.8c0-14.2,0-28.4,0-42.6c26-0.1,52.1-0.1,78.1-0.5c8.1-0.1,12,2.8,12.9,11.1c1.8,15.8,4.3,31.5,6.7,47.2
	c1.3,8.2-2.2,11.5-10.1,11.1c-5.3-0.2-10.6-0.5-15.9,0.1c-12.3,1.3-19.9-2-18.7-16.2c0.7-7.6-3.9-9.8-10.8-9.8
	C281,218.3,266.9,218,252.8,217.8z"/>
<path class="st1" d="M252.9,305c12.8,0.1,25.5,0.6,38.3,0.3c9.2-0.3,13.2,3.2,11.7,12.4c-0.4,2.6-0.5,5.2-0.9,7.9
	c-4.6,36.2-4.6,36.3-40.4,46.2c-3,0.8-6,1.4-9,2c0.1-16.8-0.3-33.6,0.3-50.4"/>
<g>
	<path class="st0" d="M64.9,63.4c-1.9,3.6-4.6,6.2-7.9,8c-3.3,1.7-7.1,2.6-11.4,2.6c-3.8,0-7.3-0.9-10.6-2.6
		c-3.3-1.7-5.9-4.2-7.9-7.5c-2-3.3-3-7.2-3.1-11.7c0-0.5,0.1-1,0.4-1.4c0.3-0.4,0.6-0.6,1.1-0.6h13.9c0.7,0,1.3,0.2,1.7,0.7
		c0.4,0.4,0.8,1.2,1.1,2.2c0.5,1.3,1,2.2,1.5,2.8c0.6,0.5,1.4,0.8,2.4,0.8c1.3,0,2.3-0.5,3-1.6c0.7-1.1,1-2.9,1-5.6V28.9H30
		c-0.5,0-0.9-0.2-1.3-0.7c-0.4-0.5-0.5-1-0.5-1.7V13.3c0-0.7,0.2-1.2,0.5-1.7c0.4-0.5,0.8-0.7,1.3-0.7h36c0.5,0,0.9,0.2,1.3,0.7
		c0.4,0.5,0.5,1,0.5,1.7v36.9C67.8,55.4,66.9,59.9,64.9,63.4z"/>
	<path class="st0" d="M105,11.8c0.5,0.6,0.8,1.3,1,2l15.2,56.7c0,0.2,0.1,0.4,0.1,0.6c0,0.5-0.1,1-0.4,1.4c-0.3,0.4-0.6,0.6-1.1,0.6
		h-12.6c-1.4,0-2.2-0.7-2.7-2.2l-1.6-5.9H88.2l-1.6,5.9c-0.4,1.5-1.3,2.2-2.7,2.2H71.4c-0.4,0-0.8-0.2-1.1-0.6
		c-0.3-0.4-0.4-0.8-0.4-1.4c0-0.2,0-0.4,0.1-0.6l15.2-56.7c0.2-0.8,0.5-1.5,1-2c0.5-0.6,1.2-0.9,2-0.9h14.8
		C103.8,10.9,104.5,11.2,105,11.8z M95.5,31.1l-3.8,16.5h7.7L95.5,31.1z"/>
	<path class="st0" d="M135.3,13.8l6.5,33l6.5-33c0.2-0.8,0.5-1.5,1-2c0.5-0.6,1.2-0.9,2-0.9h12.6c0.4,0,0.8,0.2,1.1,0.6
		c0.3,0.4,0.4,0.8,0.4,1.4l-0.1,0.6l-12.8,56.7c-0.2,0.8-0.5,1.5-1,2c-0.5,0.6-1.2,0.9-2,0.9H134c-0.9,0-1.5-0.3-2-0.9
		c-0.5-0.6-0.8-1.3-1-2l-12.8-56.7l-0.1-0.6c0-0.5,0.1-1,0.4-1.4c0.3-0.4,0.6-0.6,1.1-0.6h12.6c0.9,0,1.5,0.3,2,0.9
		C134.8,12.4,135.1,13.1,135.3,13.8z"/>
	<path class="st0" d="M197.4,11.8c0.5,0.6,0.8,1.3,1,2l15.2,56.7c0,0.2,0.1,0.4,0.1,0.6c0,0.5-0.1,1-0.4,1.4
		c-0.3,0.4-0.6,0.6-1.1,0.6h-12.6c-1.4,0-2.2-0.7-2.7-2.2l-1.6-5.9h-14.6l-1.6,5.9c-0.4,1.5-1.3,2.2-2.7,2.2h-12.6
		c-0.4,0-0.8-0.2-1.1-0.6c-0.3-0.4-0.4-0.8-0.4-1.4c0-0.2,0-0.4,0.1-0.6l15.2-56.7c0.2-0.8,0.5-1.5,1-2c0.5-0.6,1.2-0.9,2-0.9h14.8
		C196.2,10.9,196.9,11.2,197.4,11.8z M187.9,31.1l-3.8,16.5h7.7L187.9,31.1z"/>
	<path class="st0" d="M256.9,29.8c-0.3,0.4-0.6,0.6-1,0.6h-13.6c-0.6,0-1.1-0.1-1.5-0.3c-0.4-0.2-0.8-0.6-1.2-1.1
		c-1-1.1-2.2-1.6-3.6-1.6c-2.2,0-3.3,0.8-3.3,2.5c0,0.9,0.5,1.6,1.6,2.2c1.1,0.6,3,1.1,5.9,1.6c4.5,0.8,8.2,1.9,10.9,3.5
		c2.7,1.5,4.7,3.6,6,6.2c1.2,2.6,1.9,5.8,1.9,9.7c0,4.2-1,7.9-2.9,11.1c-2,3.2-4.6,5.6-8.1,7.3c-3.4,1.7-7.3,2.6-11.6,2.6
		c-4.8,0-8.9-0.9-12.2-2.6c-3.3-1.7-5.8-4-7.5-6.9c-1.7-2.9-2.6-6-2.7-9.5c0-0.5,0.1-1,0.4-1.4c0.3-0.4,0.6-0.6,1.1-0.6h12.9
		c0.6,0,1.1,0.1,1.5,0.3c0.4,0.2,0.9,0.6,1.4,1.2c1.3,1.4,3,2,5,2c1.5,0,2.8-0.2,3.7-0.7c0.9-0.4,1.4-1.1,1.4-1.8
		c0-1.1-0.6-1.9-1.8-2.4c-1.2-0.6-3.5-1.1-6.9-1.7c-11.7-2-17.5-8.5-17.5-19.5c0-4,0.9-7.5,2.6-10.6c1.7-3.1,4.2-5.5,7.3-7.2
		c3.1-1.7,6.7-2.6,10.8-2.6c4.3,0,8,0.9,11.2,2.8c3.2,1.9,5.7,4.3,7.4,7.2c1.7,2.9,2.6,5.7,2.7,8.4
		C257.3,28.9,257.2,29.4,256.9,29.8z"/>
	<path class="st0" d="M281.8,55c0.9,1.1,2.1,1.6,3.7,1.6c2.6,0,4.3-1.6,5.1-4.8c0.2-1,0.5-1.7,0.8-2s0.9-0.5,1.7-0.5H307
		c0.4,0,0.8,0.2,1.1,0.6c0.3,0.4,0.4,0.8,0.4,1.4c0,5.2-1.1,9.4-3.3,12.8c-2.2,3.4-4.9,5.9-8.4,7.5c-3.4,1.6-7.2,2.4-11.3,2.4
		c-6.8,0-12.3-2-16.3-5.9c-4-3.9-6.2-10-6.5-18.2c0-1.6-0.1-4.2-0.1-7.8c0-3.7,0-6.3,0.1-8c0.3-7.9,2.5-13.9,6.6-18
		c4.1-4.1,9.5-6.1,16.2-6.1c4.1,0,7.8,0.8,11.3,2.4c3.4,1.6,6.2,4.1,8.4,7.5c2.2,3.4,3.3,7.7,3.3,12.8c0,0.5-0.1,1-0.4,1.4
		c-0.3,0.4-0.6,0.6-1.1,0.6h-13.9c-0.7,0-1.3-0.2-1.6-0.5c-0.3-0.4-0.6-1-0.9-2c-0.5-1.8-1.2-3-2-3.7c-0.8-0.7-1.9-1.1-3.1-1.1
		c-1.6,0-2.8,0.5-3.7,1.6c-0.9,1.1-1.3,2.9-1.4,5.6c0,1.6-0.1,4.1-0.1,7.4c0,3.3,0,5.8,0.1,7.6C280.5,52,281,53.9,281.8,55z"/>
	<path class="st0" d="M357.8,71.1c0,0.5-0.1,1-0.4,1.4c-0.3,0.4-0.6,0.6-1.1,0.6h-13.9c-0.8,0-1.5-0.3-1.9-0.8
		c-0.5-0.5-0.8-1.1-1-1.6l-5.8-17h-2.8v17c0,0.7-0.2,1.2-0.5,1.7c-0.4,0.5-0.8,0.7-1.3,0.7h-13.3c-0.5,0-0.9-0.2-1.3-0.7
		c-0.4-0.5-0.5-1-0.5-1.7V13.3c0-0.7,0.2-1.2,0.5-1.7c0.4-0.5,0.8-0.7,1.3-0.7h20.1c6.5,0,11.6,1.9,15.3,5.7
		c3.7,3.8,5.5,9.1,5.5,15.9c0,3.9-0.7,7.2-2,10.2c-1.3,2.9-3.1,5.3-5.4,7.2l8.4,20.3C357.8,70.5,357.8,70.8,357.8,71.1z M335.8,36.8
		c1,0,1.8-0.4,2.3-1.3c0.5-0.9,0.8-1.9,0.8-3.2c0-1.3-0.3-2.4-0.8-3.4c-0.5-1-1.3-1.5-2.3-1.5h-5v9.4H335.8z"/>
	<path class="st0" d="M363.5,72.4c-0.4-0.5-0.5-1-0.5-1.7V13.3c0-0.7,0.2-1.2,0.5-1.7c0.4-0.5,0.8-0.7,1.3-0.7h13.9
		c0.5,0,0.9,0.2,1.3,0.7c0.4,0.5,0.5,1,0.5,1.7v57.4c0,0.7-0.2,1.2-0.5,1.7c-0.4,0.5-0.8,0.7-1.3,0.7h-13.9
		C364.3,73.1,363.9,72.8,363.5,72.4z"/>
	<path class="st0" d="M425.4,16.4c3.6,3.7,5.5,9.1,5.5,16.3c0,7.1-1.8,12.4-5.4,15.9c-3.6,3.5-8.6,5.2-15,5.2h-4.8v17
		c0,0.7-0.2,1.2-0.5,1.7c-0.4,0.5-0.8,0.7-1.3,0.7h-14c-0.5,0-0.9-0.2-1.3-0.7c-0.4-0.5-0.5-1-0.5-1.7V13.3c0-0.7,0.2-1.2,0.5-1.7
		c0.4-0.5,0.8-0.7,1.3-0.7h20.6C416.8,10.9,421.8,12.7,425.4,16.4z M410.1,37.3c0.8,0,1.5-0.4,2.2-1.2c0.6-0.8,1-2,1-3.6
		c0-1.4-0.2-2.5-0.7-3.6c-0.5-1-1.3-1.5-2.4-1.5h-4.8v9.9H410.1z"/>
	<path class="st0" d="M476.3,11.6c0.4,0.5,0.5,1,0.5,1.7v14.3c0,0.7-0.2,1.2-0.5,1.7c-0.4,0.5-0.8,0.7-1.3,0.7h-11.3v40.7
		c0,0.7-0.2,1.2-0.5,1.7c-0.4,0.5-0.8,0.7-1.3,0.7h-13.6c-0.5,0-0.9-0.2-1.3-0.7c-0.4-0.5-0.5-1-0.5-1.7V30h-11.3
		c-0.5,0-0.9-0.2-1.3-0.7c-0.4-0.5-0.5-1-0.5-1.7V13.3c0-0.7,0.2-1.2,0.5-1.7c0.4-0.5,0.8-0.7,1.3-0.7H475
		C475.5,10.9,475.9,11.1,476.3,11.6z"/>
</g>
</svg>
