<?xml version="1.0" encoding="utf-8"?>
<!-- Generator: Adobe Illustrator 20.1.0, SVG Export Plug-In . SVG Version: 6.00 Build 0)  -->
<svg version="1.1" id="Layer_1" xmlns="http://www.w3.org/2000/svg" xmlns:xlink="http://www.w3.org/1999/xlink" x="0px" y="0px"
	 viewBox="0 0 500 500" style="enable-background:new 0 0 500 500;" xml:space="preserve">
<style type="text/css">
	.st0{fill:#FFFFFF;}
	.st1{fill:#858585;}
</style>
<g>
	<path class="st0" d="M250.5,491.2c-2.2-1.2-4.7-1.6-7.2-2.2c-44.4-12.5-88.7-24.9-133.1-37.2c-2-0.6-2.7-1.4-2.9-3.5
		c-1.6-20.6-3.3-41.2-5-61.9c-2-23.9-4-47.8-5.9-71.7c-1.6-20.1-3.3-40.1-4.9-60.2c-1.8-21.9-3.6-43.9-5.4-65.8
		c-1.7-20.1-3.3-40.3-4.9-60.4c-0.7-8.4-1.4-16.9-2.1-25.3c-0.3-3-0.3-3.1,2.7-3.1c112.5,0,224.9,0,337.4,0c3.1,0,3.2,0.1,2.9,3.2
		c-3.1,34.7-6.1,69.3-9.2,104c-2.4,27.9-4.8,55.7-7.3,83.6c-2.7,31.3-5.5,62.6-8.3,93.9c-1.8,20.6-3.5,41.2-5.4,61.8
		c-0.5,5.7,0.3,4.4-4.8,5.9c-44,12.7-88.1,25.4-132.2,38.1c-0.9,0.3-1.8,0.6-2.6,1C251.7,491.2,251.1,491.2,250.5,491.2z"/>
	<path class="st0" d="M202.1,74.6c-0.5,0.7-1.3,0.4-1.9,0.4c-16.5,0-32.9,0-49.4,0.1c-1.9,0-2.4-0.6-2.3-2.4c0-21,0-42,0-63
		c18,0,36.1,0,54.1,0c-0.4,6.4-0.1,12.8-0.2,19.2c0,0.9,0.3,1.9-0.3,2.7c-1.2-0.8-1.1-2-1.1-3.2c-0.1-4.2,0-8.5,0-12.7
		c-0.1-3.5-0.9-4.5-4.5-4.5c-13.9,0-27.9,0-41.8,0c-3.5,0-4.5,0.9-4.5,4.5c0,17.7,0,35.4,0,53.1c0,3.6,0.9,4.5,4.7,4.5
		c14.4,0,28.8,0,43.2,0.1C199.4,73.5,201.1,73,202.1,74.6z"/>
	<path class="st0" d="M224.1,27.6c-0.7-1-0.4-2.1-0.4-3.2c-0.1-4.9,0-9.9-0.1-14.8c17.9,0,35.7,0,53.6,0c0,6.8-0.1,13.6-0.2,20.4
		c0,0.8,0.3,1.7-0.3,2.5c-1.3-0.8-1.1-2.2-1.1-3.4c-0.1-4.5,0-8.9,0-13.4c0-3.6-0.9-4.5-4.4-4.5c-13.8,0-27.7,0-41.5,0
		c-3.4,0-4.3,0.9-4.4,4.3c-0.1,3,0.1,6.1-0.1,9.1C225.2,25.9,225.4,27.1,224.1,27.6z"/>
	<path class="st0" d="M351.1,9.7c0,6.9-0.1,13.9,0,20.8c0,1.9-0.6,2.4-2.4,2.3c-4.2-0.1-8.4-0.1-12.6,0c-0.6,0-1.7-0.5-1.8,0.8
		c-0.8,0.3-0.9-0.3-0.9-0.9c0-0.7,0.4-1.2,1.1-1.4c0.8-0.3,1.7-0.2,2.6-0.3c2.9,0,5.8,0.1,8.7-0.1c2.7-0.1,3.7-1,3.7-3.8
		c0.1-3.8,0.1-7.7,0-11.5c0-3.5-0.9-4.5-4.5-4.5c-10.6,0-21.3,0-31.9,0c-3.9,0-7.8,0-11.7,0c-1.3,0-2.5,0-3.4-1.1
		c0-0.2,0-0.3,0.1-0.5C315.7,9.7,333.4,9.7,351.1,9.7z"/>
	<path class="st0" d="M224.1,27.6c0-4.9,0.1-9.9,0-14.8c0-2,0.7-2.7,2.7-2.7c15.7,0.1,31.5,0.1,47.2,0c2.1,0,2.7,0.7,2.7,2.8
		c-0.1,6.6,0,13.1,0,19.7c-5.4,0-10.8,0-16.1,0c-0.5,1.3,0.5,1.8,0.9,2.4c4.7,6.1,9.4,12.1,14.2,18.1c0.9,1.2,1.3,2.3,1.3,3.9
		c-0.1,5.2-0.1,10.5,0,15.7c0,1.7-0.3,2.3-2.2,2.3C259,75,243.1,75,227.3,75c-1.7,0-2.1-0.6-2.1-2.2c0.1-5.6,0.1-11.3,0-16.9
		c0-1.6,0.4-2.2,2.1-2.1c4.1,0.1,8.3,0.1,12.4,0c0.7,0,1.7,0.5,2.1-0.4c0.3-0.6-0.5-1.2-0.9-1.8c-5.3-7.6-10.7-15.1-16-22.6
		C224.6,28.6,224.4,28.1,224.1,27.6z"/>
	<path class="st0" d="M297.9,10.2c16.4,0,32.8,0,49.3,0c3.4,0,3.4,0,3.4,3.4c0,5.2,0,10.5,0,15.7c0,2.9-0.2,3-3.1,3
		c-3.9,0-7.8,0-11.7,0c-0.7,0-2.2-0.4-1.5,1.3c5.4,6.8,10.7,13.6,16.1,20.5c0.5,0.7,0.6,1.4,0.6,2.2c0,5.6-0.1,11.1,0,16.7
		c0,1.7-0.6,2.1-2.2,2.1c-15.9-0.1-31.8-0.1-47.7,0c-1.7,0-2.1-0.5-2.1-2.1c0.1-5.6,0.1-11.3,0-16.9c0-1.9,0.7-2.2,2.3-2.2
		c4.8,0.1,9.5,0,14.3,0c0.3-1.1-0.6-1.7-1-2.3c-5.2-7.4-10.3-14.7-15.6-22c-1-1.4-1.5-2.8-1.4-4.6C297.9,20,297.9,15.1,297.9,10.2z"
		/>
	<path class="st0" d="M202.1,74.6c-16.5,0-33.1,0-49.6,0c-3.5,0-3.5,0-3.5-3.5c0-19.2,0-38.4,0-57.6c0-3.2,0.1-3.3,3.3-3.3
		c15.5,0,31,0,46.5,0c3.1,0,3.2,0.1,3.2,3.2c0,6.1,0,12.2,0.1,18.3c-0.9,0.1-1.7,0.2-2.6,0.2c-8.5,0-16.9,0.1-25.4,0
		c-2.2,0-2.6,0.7-2.6,2.7c0.1,5.7,0.1,11.4,0,17.2c0,1.7,0.4,2.3,2.2,2.3c8.8-0.1,17.6,0,26.3-0.1c1.8,0,2.3,0.5,2.2,2.2
		C202.1,62.2,202.6,68.4,202.1,74.6z"/>
	<path d="M153.6,301.2c-1.8-12.5-3.5-25-5.4-37.4c-0.3-2.1,0.1-3.1,2.1-3.9c31.5-13.6,62.9-27.3,94.4-40.9c1.1-0.5,2.1-0.9,3.5-1.5
		c-1.2-0.6-2.1-0.4-3-0.4c-32,0-63.9,0-95.9,0c-3.4,0-3.4,0-3.9-3.4c-1.7-12.2-3.4-24.3-5.1-36.5c-0.4-2.6-0.4-2.6,2.2-2.6
		c34.9,0,69.9,0.8,104.8-0.2c34.6-1,69.2-0.1,103.8-0.7c1.5,0,3,0,4.5,0.1c1.7,0.1,2.5,1,2.6,2.7c0,0.6,0.1,1.3,0.1,1.9
		c0,11.7-0.1,23.4,0.1,35c0,3-1,4.4-3.8,5.6c-24.4,9.9-48.7,19.9-73.1,29.9c-6,2.5-12.1,4.9-18.2,7.5c0.9,0.4,1.7,0.2,2.4,0.2
		c25.8,0,51.6,0,77.3,0c1.2,0,2.4,0,3.5,0c3.2,0.1,3.9,0.9,3.6,4c-1,11.5-2,22.9-3,34.4c-0.9,9.9-1.7,19.8-2.6,29.7
		c-0.8,9.8-1.8,19.6-2.6,29.5c-0.9,9.8-1.6,19.7-2.6,29.5c-0.8,8.3,0.5,6.6-6.7,8.9c-25.9,8.1-51.9,16.2-77.9,24.2
		c-1.2,0.4-2.4,1-3.5-0.1c-17.5-4.9-35-9.7-52.5-14.6c-11.7-3.2-23.4-6.5-35.1-9.7c-1.9-0.5-2.6-1.3-2.8-3.3
		c-1.7-20.7-3.5-41.4-5.3-62c-0.2-2.3,0.6-2.6,2.5-2.6c12.2,0.1,24.4,0.1,36.7,0c2.4,0,3.1,0.8,3.3,3c1,9.1,2.1,18.2,3.1,27.3
		c0.2,1.8,0.9,2.5,2.6,3c13.7,3.4,27.4,6.8,41,10.3c1.9,0.5,3.7,0.3,5.5-0.3c4.5-3,9.8-2.8,14.8-3.9c8.7-1.8,17.4-3.3,26.1-4.9
		c4.5-0.9,5-1.5,5.5-6.2c1.6-14.9,2.9-29.8,4.5-44.6c0-0.3,0.1-0.6,0.1-0.9c0.2-3.8-0.5-4.6-4.3-4.6c-13.2,0-26.5,0.6-39.7-0.1
		c-34.1-1.7-68.2-0.3-102.3-0.8C154.6,301.5,154,301.7,153.6,301.2z"/>
	<path class="st1" d="M251.4,416.5c27.9-8.7,55.8-17.4,83.7-26c2.1-0.6,2.8-1.6,3-3.7c2.4-28.7,4.9-57.4,7.5-86.2
		c1.2-13.4,2.4-26.8,3.6-40.3c0.2-2.7,0.1-2.9-2.7-2.9c-28.3,0-56.6,0-84.9,0c-0.9,0-1.9,0-3,0c0.4-1.1,1.3-1.2,1.9-1.4
		c31.2-12.8,62.3-25.6,93.6-38.2c2.5-1,3.3-2.3,3.3-5c-0.2-11.8-0.1-23.5,0-35.3c0-2.3-0.7-2.9-2.9-2.9c-70.4,0.1-140.9,0.1-211.3,0
		c-1.8,0-2.9,0.3-2.6,2.4c-0.9-1.9-0.3-2.8,1.8-2.8c0.8,0,1.6,0,2.4,0c34.3,0,68.6,0,103,0c3.9,0,3.9,0,3.9-3.9c0-11,0-22.1,0-33.1
		c0-3.3,0.1-3.4,3.2-3.4c44.9,0,89.8,0,134.7,0c3,0,3.3,0.5,3.1,3.5c-0.8,8.6-1.5,17.1-2.3,25.7c-0.9,9.8-1.8,19.6-2.7,29.4
		c-0.7,8.2-1.3,16.4-2,24.5c-0.7,7.9-1.5,15.7-2.2,23.6c-0.6,6.2-1,12.5-1.6,18.7c-0.7,8.2-1.5,16.3-2.2,24.5
		c-0.5,6.1-1,12.2-1.6,18.2c-0.7,7.9-1.4,15.9-2.1,23.8c-0.6,6.4-1.1,12.8-1.7,19.2c-0.7,8.3-1.5,16.7-2.2,25
		c-0.7,7.9-1.3,15.7-2,23.6c-0.7,8.3-1.9,16.5-2,24.8c-0.1,5-2.4,6.3-6.6,7.5c-30.5,8.6-60.9,17.4-91.3,26.1
		c-5.2,1.5-10.4,3-15.6,4.5c-2.6,0.8-3,0.4-3-2.3C251.4,441.6,251.4,429,251.4,416.5z"/>
	<path class="st1" d="M153.6,301.2c1.3,0,2.5,0.1,3.8,0.1c47.4,0,94.8,0,142.2,0c3.7,0,3.7,0,3.3,3.8c-1.7,16.4-3.3,32.9-4.9,49.3
		c0,0.3-0.1,0.6-0.1,0.9c0.1,2.6-1.1,3.7-3.7,4.2c-14.1,2.5-28.2,5.2-42.3,7.9c-0.5,0.1-0.9,0.1-1.4,0.1c0.9-0.8,0.9-1.9,0.9-3
		c0-20,0-39.9,0-59.9c0-2.6-1.1-2.9-3.3-2.9c-30.3,0-60.6,0-90.9,0C156,301.7,154.7,302,153.6,301.2z"/>
</g>
</svg>
