<?xml version="1.0" encoding="utf-8"?>
<!-- Generator: Adobe Illustrator 20.1.0, SVG Export Plug-In . SVG Version: 6.00 Build 0)  -->
<svg version="1.1" id="Layer_1" xmlns="http://www.w3.org/2000/svg" xmlns:xlink="http://www.w3.org/1999/xlink" x="0px" y="0px"
	 viewBox="0 0 500 500" style="enable-background:new 0 0 500 500;" xml:space="preserve">
<style type="text/css">
	.st0{fill:#898989;}
	.st1{fill:#9D9D9D;}
	.st2{fill:#E0E0E0;}
	.st3{fill:#656565;}
</style>
<g>
	<g>
		<path class="st0" d="M252,474c-0.7,0-1.3,0-2,0c-1.2-0.8-2.5-1.4-3.7-2.2c-1-0.8-2.5-1.8-1.9-3.1c1.7-3.4-0.7-5.2-2.2-7.6
			c-2-3.2-4.2-6.4-6-9.9c-18.4-37.2-37.7-73.9-56.5-110.9c-21.4-42-43.1-83.8-64.4-125.9c-2.9-5.6-6.3-11-8.8-16.8
			c-2.6-6-6.8-8.3-13.3-8.3c-25.3,0.2-50.6,0-76,0.1c-4.1,0-8-0.7-12.1-0.6c-0.4-0.3-0.8-0.6-1.2-0.9c0-0.7,0-1.3,0-2
			c4.2-12.8,13.7-22.2,21.3-32.9c25.6-36.2,52.4-71.5,79-106.9c1.2-1.6,2.5-3.2,3.7-4.7c1.3-1.5,2.7-2,3.9,0.3
			c1.9,3,1.7,6.3,1.5,9.5c-1,12.3-1.2,24.6-1.9,36.9c-1,16.8-1.6,33.6-2.5,50.3c-0.5,10-1.1,19.9-1.4,29.9c-0.1,3.5,0.2,7-0.6,10.4
			c-0.4,1.7-0.3,3.3,1.4,4.3c2.8,1.5,5.8,1.2,8.8,1.2c89.4,0.1,178.8,0.1,268.2,0c2.9,0,6,0.3,8.7-1.4c1.2-0.9,1.4-2,1.3-3.5
			c-1.3-19.1-1.8-38.2-2.9-57.3c-1.4-23.9-1.9-47.9-3.7-71.8c-0.2-2.8-0.6-5.7,1.4-8.2c1.8-3,3.2-1.8,4.8,0.3
			c7,8.9,13.6,18.1,20.5,27c26.2,34.4,51.3,69.6,76.9,104.4c2.7,3.7,4.1,7.9,5.8,12c0,0.7,0,1.3,0,2c-0.4,0.4-0.8,0.7-1.2,0.9
			c-29.7,1.3-59.4,0.3-89.1,0.5c-5.7,0.1-9.2,2.4-11.8,7.4c-13.9,27-27.7,54-41.5,81c-22.5,43.9-44.9,87.8-67.5,131.7
			c-7.9,15.4-15.2,31.2-23.8,46.2c-1.2,2-2.5,3.9-3.7,5.9s-3.5,3.7-2,6.7c0.9,1.7-0.7,2.6-1.8,3.6C254.5,472.6,253.2,473.2,252,474z
			"/>
		<path class="st1" d="M391.8,43c-1.2,9.3,0.3,18.6,0.5,27.9c0.5,17.1,1.8,34.2,2.6,51.4c1,18.9,1.8,37.9,2.8,56.8
			c0.1,2.4,0.2,4.7-0.7,6.9c-3.3,0.5-5-1.9-6.9-3.8c-10.7-10.5-20.4-21.9-30.6-32.9c-9.9-10.6-19.7-21.3-29.4-32
			C312.6,98.1,295,79,277.5,59.9c-7.4-8.1-14.9-16.1-22.3-24.3c-2.9-3.2-5.6-3.1-8.5,0.1c-15.7,17.5-31.8,34.6-47.6,51.9
			c-12.7,13.9-25.5,27.7-38.2,41.5c-13.5,14.7-27.2,29.2-40.5,44.2c-3.2,3.6-6.6,7.1-10.2,10.3c-1.4,1.3-2.9,3-5.3,2.3
			c-1.6-9.3,0.1-18.6,0.4-27.8c0.5-17.3,1.7-34.6,2.6-51.9c1-18.8,1.8-37.6,2.8-56.4c0.1-2.3,0.2-4.7-0.6-6.9
			c-2.2-2.6,0.3-3,1.9-3.6c4-1.4,8.2-1.4,12.3-1.9c24.6-2.6,49.2-5.5,73.8-7.8c13.6-1.3,27.3-1.5,40.9-2.3c1.6-0.1,3.3,0.5,4.9-0.5
			c5,0,10,0,15,0c11.9,1.3,23.9,1.5,35.8,2.2c25.6,1.6,51,5.2,76.5,7.7c5.6,0.6,11.3,0.9,16.8,2C389.7,39.2,394,38.7,391.8,43z"/>
		<path class="st2" d="M105,186c19.4-21,38.9-42.1,58.3-63.1c21-22.8,41.9-45.6,62.8-68.5c6.9-7.5,13.8-14.9,20.5-22.5
			c3.2-3.7,5.5-3.6,8.8,0c19.6,21.6,39.4,43,59.1,64.5c21.1,22.9,42.1,45.9,63.2,68.8c6.4,7,12.9,13.9,19.4,20.8
			c-1.9,1.4-4.2,1-6.3,1c-93.2,0-186.4,0-279.5,0C109.1,187,106.9,187.4,105,186z"/>
		<path class="st3" d="M497.1,188.1c-28.6,33.3-57.2,66.7-85.9,100C360,347.7,308.7,407.2,257.4,466.8c-1.4,1.6-2.9,3.2-4.4,4.8
			c1.4-5.6,4.5-10.4,7-15.4c20.6-40.3,41.3-80.7,61.9-121c24.3-47.4,48.7-94.8,73-142.3c2.2-4.3,5.1-6,9.8-5.9
			c28.5,0.1,57,0.1,85.5,0.1C492.5,187,494.9,187,497.1,188.1z"/>
		<path class="st3" d="M249,471.5c-19.7-22.8-39.5-45.5-59.1-68.4c-61-70.9-122-141.8-183-212.7c-0.6-0.8-1.2-1.6-1.9-2.3
			c2.5-1.2,5.2-1.1,7.8-1.1c27.8,0,55.6,0.1,83.4-0.1c5.6,0,8.7,1.8,11.3,6.8c29.6,58.2,59.4,116.3,89.1,174.4
			c16.3,31.9,32.8,63.7,49.1,95.5C247,466.2,247.9,468.9,249,471.5z"/>
	</g>
</g>
</svg>
